<svg width="773" height="250" viewBox="0 0 773 250" fill="none" xmlns="http://www.w3.org/2000/svg">
<g clip-path="url(#clip0_239_297)">
<path d="M44.0094 246.377H0.254578V8.02128H44.0094V158.327L108.767 76.1683H158.727L102.243 147.181L158.727 246.377H108.767L74.2402 184.44L44.0094 224.563V246.377ZM335.178 159.601C335.178 172.339 332.899 184.226 328.337 195.266C323.777 206.199 317.571 215.699 309.721 223.768C301.872 231.728 292.643 238.044 282.036 242.716C271.535 247.279 260.239 249.562 248.146 249.562C236.16 249.562 224.863 247.279 214.257 242.716C203.755 238.044 194.526 231.728 186.572 223.768C178.722 215.699 172.516 206.199 167.955 195.266C163.394 184.226 161.113 172.339 161.113 159.601C161.113 146.651 163.394 134.656 167.955 123.617C172.516 112.577 178.722 103.077 186.572 95.1158C194.526 87.0486 203.755 80.7328 214.257 76.1683C224.863 71.604 236.16 69.3218 248.146 69.3218C260.239 69.3218 271.535 71.4979 282.036 75.8498C292.643 80.0959 301.872 86.1993 309.721 94.1605C317.571 102.015 323.777 111.516 328.337 122.661C332.899 133.701 335.178 146.014 335.178 159.601ZM291.423 159.601C291.423 152.595 290.257 146.279 287.924 140.653C285.695 134.921 282.619 130.038 278.695 126.005C274.77 121.865 270.155 118.734 264.853 116.611C259.656 114.382 254.085 113.267 248.146 113.267C242.206 113.267 236.585 114.382 231.281 116.611C226.084 118.734 221.522 121.865 217.597 126.005C213.779 130.038 210.756 134.921 208.527 140.653C206.301 146.279 205.187 152.595 205.187 159.601C205.187 166.182 206.301 172.286 208.527 177.911C210.756 183.536 213.779 188.42 217.597 192.56C221.522 196.699 226.084 199.991 231.281 202.431C236.585 204.766 242.206 205.935 248.146 205.935C254.085 205.935 259.656 204.821 264.853 202.591C270.155 200.362 274.77 197.23 278.695 193.197C282.619 189.163 285.695 184.281 287.924 178.548C290.257 172.816 291.423 166.5 291.423 159.601ZM410.438 29.5163C410.438 33.5498 409.641 37.3181 408.05 40.821C406.565 44.3239 404.496 47.4022 401.846 50.056C399.194 52.6035 396.064 54.6734 392.458 56.2656C388.957 57.7517 385.191 58.4948 381.161 58.4948C377.13 58.4948 373.312 57.7517 369.706 56.2656C366.205 54.6734 363.129 52.6035 360.477 50.056C357.932 47.4022 355.862 44.3239 354.271 40.821C352.787 37.3181 352.044 33.5498 352.044 29.5163C352.044 25.5888 352.787 21.8736 354.271 18.3707C355.862 14.7617 357.932 11.6834 360.477 9.13584C363.129 6.48213 366.205 4.41225 369.706 2.92617C373.312 1.33395 377.13 0.537842 381.161 0.537842C385.191 0.537842 388.957 1.33395 392.458 2.92617C396.064 4.41225 399.194 6.48213 401.846 9.13584C404.496 11.6834 406.565 14.7617 408.05 18.3707C409.641 21.8736 410.438 25.5888 410.438 29.5163ZM402.959 246.377H359.204V75.8498H402.959V246.377ZM600.891 159.601C600.891 172.339 598.61 184.226 594.048 195.266C589.488 206.199 583.282 215.699 575.432 223.768C567.583 231.728 558.356 238.044 547.747 242.716C537.246 247.279 525.95 249.562 513.859 249.562C501.871 249.562 490.574 247.279 479.968 242.716C469.466 238.044 460.237 231.728 452.283 223.768C444.433 215.699 438.228 206.199 433.667 195.266C429.106 184.226 426.825 172.339 426.825 159.601C426.825 146.651 429.106 134.656 433.667 123.617C438.228 112.577 444.433 103.077 452.283 95.1158C460.237 87.0486 469.466 80.7328 479.968 76.1683C490.574 71.604 501.871 69.3218 513.859 69.3218C525.95 69.3218 537.246 71.4979 547.747 75.8498C558.356 80.0959 567.583 86.1993 575.432 94.1605C583.282 102.015 589.488 111.516 594.048 122.661C598.61 133.701 600.891 146.014 600.891 159.601ZM557.136 159.601C557.136 152.595 555.968 146.279 553.635 140.653C551.408 134.921 548.332 130.038 544.407 126.005C540.483 121.865 535.868 118.734 530.564 116.611C525.367 114.382 519.798 113.267 513.859 113.267C507.917 113.267 502.296 114.382 496.992 116.611C491.795 118.734 487.234 121.865 483.31 126.005C479.49 130.038 476.467 134.921 474.24 140.653C472.012 146.279 470.898 152.595 470.898 159.601C470.898 166.182 472.012 172.286 474.24 177.911C476.467 183.536 479.49 188.42 483.31 192.56C487.234 196.699 491.795 199.991 496.992 202.431C502.296 204.766 507.917 205.935 513.859 205.935C519.798 205.935 525.367 204.821 530.564 202.591C535.868 200.362 540.483 197.23 544.407 193.197C548.332 189.163 551.408 184.281 553.635 178.548C555.968 172.816 557.136 166.5 557.136 159.601ZM718.472 246.377H619.188V203.069H718.472C721.443 203.069 723.988 202.007 726.11 199.884C728.231 197.761 729.29 195.214 729.29 192.241C729.29 189.163 728.231 187.147 726.11 186.19C723.988 185.236 721.443 184.757 718.472 184.757H673.285C665.754 184.757 658.699 183.324 652.124 180.459C645.547 177.593 639.82 173.719 634.939 168.836C630.06 163.847 626.188 158.062 623.324 151.48C620.567 144.899 619.188 137.84 619.188 130.304C619.188 122.767 620.567 115.709 623.324 109.127C626.188 102.546 630.06 96.8142 634.939 91.9314C639.82 87.0486 645.547 83.2272 652.124 80.4674C658.699 77.6013 665.754 76.1683 673.285 76.1683H761.271V119.477H673.285C670.314 119.477 667.769 120.538 665.647 122.661C663.525 124.784 662.465 127.332 662.465 130.304C662.465 133.382 663.525 136.036 665.647 138.265C667.769 140.388 670.314 141.449 673.285 141.449H718.472C725.896 141.449 732.898 142.723 739.473 145.271C746.05 147.712 751.778 151.162 756.658 155.62C761.537 160.078 765.409 165.439 768.273 171.702C771.137 177.964 772.569 184.812 772.569 192.241C772.569 199.777 771.137 206.837 768.273 213.419C765.409 219.893 761.537 225.625 756.658 230.614C751.778 235.496 746.05 239.371 739.473 242.237C732.898 244.996 725.896 246.377 718.472 246.377Z" fill="url(#paint0_linear_239_297)"/>
</g>
<defs>
<linearGradient id="paint0_linear_239_297" x1="48" y1="158" x2="773" y2="150.61" gradientUnits="userSpaceOnUse">
<stop stop-color="#512C9E"/>
<stop offset="0.545899" stop-color="#CC83B9"/>
<stop offset="1" stop-color="#F2BDD2"/>
</linearGradient>
<clipPath id="clip0_239_297">
<rect width="773" height="250" fill="white"/>
</clipPath>
</defs>
</svg>
